<svg width="32" height="32" viewBox="0 0 8.467 8.467" xmlns="http://www.w3.org/2000/svg"><g style="fill:#f0f"><path style="fill:#f0f;fill-opacity:1;stroke-width:.177622" d="M147.407 117.133c.128-.051.281-.045.34.014.06.059-.045.1-.233.093-.207-.009-.249-.05-.107-.107zm-42.463-31.968a.686.686 0 0 1 .444 0c.122.049.022.09-.222.09s-.344-.041-.222-.09zm5.074-12.272c1.838-.029 4.796-.029 6.572 0 1.777.03.273.053-3.342.053s-5.068-.024-3.23-.053zm37.222-21.67c-.22-.282-.215-.288.067-.067.296.232.39.378.244.378-.037 0-.177-.14-.311-.31zM158.347 109.75l-.338-.4.4.338c.375.318.48.461.338.461-.034 0-.214-.18-.4-.4zm-53.925-24.59c.129-.05.282-.044.34.015.06.059-.045.1-.232.093-.207-.008-.25-.05-.108-.107zm34.803-19.016c1.197-.03 3.155-.03 4.352 0 1.197.03.218.056-2.176.056-2.393 0-3.372-.025-2.176-.056zm5.599-18.996c.173-.045.412-.042.533.007.12.048-.021.085-.315.081-.293-.003-.391-.043-.218-.088zM137.577 84.572c0-6.4.022-9.017.05-5.817.027 3.2.027 8.434 0 11.634-.028 3.2-.05.582-.05-5.817zm16.094-14.847c.01-.206.05-.249.107-.107.052.128.045.282-.014.34-.059.06-.1-.045-.093-.233zm-23.849-3.581c1.398-.03 3.636-.03 4.973 0 1.338.03.194.055-2.541.055-2.736 0-3.83-.025-2.432-.055zm-15.442-14.92c-.221-.283-.215-.289.067-.068.296.232.39.378.244.378-.037 0-.177-.14-.311-.31zM120.32 66.144c1.348-.03 3.506-.03 4.795 0 1.288.03.185.055-2.453.055s-3.692-.025-2.343-.055zm33.351-16.49c.01-.207.05-.249.107-.107.052.128.045.281-.014.34-.059.06-.1-.046-.093-.233zM140.824 72.893c1.783-.029 4.7-.029 6.483 0 1.783.03.324.053-3.242.053-3.565 0-5.024-.024-3.241-.053zm-27.71-6.749a55.832 55.832 0 0 1 3.287 0c.903.033.164.059-1.643.059-1.808 0-2.547-.026-1.643-.059zM154.69 115.18c.128-.052.28-.046.34.013.059.06-.046.101-.233.093-.207-.009-.25-.05-.107-.107zM112.238 119.62c.128-.052.281-.045.34.014.06.059-.046.1-.233.093-.207-.009-.249-.05-.107-.107zm41.73-4.437a.685.685 0 0 1 .444 0c.122.05.022.09-.222.09s-.344-.04-.222-.09zm5.742-2.65c.01-.207.05-.25.108-.108.05.128.045.282-.014.34-.06.06-.101-.045-.094-.233zM119.813 81.64c0-4.787.023-6.72.051-4.295.028 2.425.028 6.341 0 8.703-.028 2.363-.05.379-.05-4.408zm-9.304.696c.009-.207.05-.25.107-.108.051.129.045.282-.014.34-.059.06-.1-.045-.093-.232zm-12.413-.34c.004-.294.043-.392.088-.22.045.173.042.413-.006.533-.049.12-.086-.02-.082-.314zm10.964-2.354-.43-.489.488.43c.457.403.57.547.43.547-.03 0-.25-.22-.488-.488z" transform="matrix(.09146 0 0 .09146 -7.562 -3.942)"/><path style="fill:#000;fill-opacity:1;stroke-width:.177622" d="M132.786 134.673c-1.817-.443-3.108-2.003-3.108-3.758 0-.407.96-5.225 2.134-10.708l2.135-9.969-2.025-5.861-2.026-5.862-4.687-.047-4.688-.047-3.982 1.038c-2.19.572-4.01 1.123-4.043 1.225-.035.102.83 2.533 1.921 5.403 1.708 4.491 1.985 5.365 1.992 6.283.026 3.553-4.084 5.275-6.617 2.773-.81-.8-.903-1.013-3.815-8.798-2.767-7.396-2.977-8.041-2.882-8.848.057-.478.286-1.2.51-1.605.78-1.41 1.201-1.581 8.946-3.616 3.9-1.024 7.152-1.923 7.226-1.996.075-.074.115-4.006.09-8.738l-.047-8.604-7.016-.09c-6.183-.078-7.082-.124-7.572-.393-.851-.466-1.435-1.277-1.654-2.3l-.199-.926 2.785-8.27c1.531-4.549 2.952-8.578 3.156-8.954.76-1.396 2.887-2.038 4.311-1.302 1.038.537 1.833 1.865 1.836 3.068 0 .205-.917 3.082-2.04 6.394a821.49 821.49 0 0 0-2.042 6.067c-.001.025 7.711.045 17.139.045 9.597 0 17.14-.068 17.14-.155 0-.085-.88-2.758-1.954-5.941-1.225-3.628-1.954-6.058-1.954-6.514 0-.4.16-1.038.354-1.42 1.112-2.18 4.285-2.407 5.58-.399.505.784 5.797 16.317 5.923 17.383a3.2 3.2 0 0 1-1.742 3.267c-.648.331-1.07.35-7.532.35h-6.846v23.285l2.253 6.52c1.794 5.193 2.249 6.7 2.233 7.408-.01.488-1.056 5.696-2.323 11.572-2.466 11.436-2.472 11.455-3.76 12.406-.316.233-.97.509-1.451.612-.963.206-.904.206-1.659.022zm-22.202-9.091c-2.843-.395-5.39-2.434-5.948-4.764-.187-.782-.173-.973.114-1.561.545-1.115 2.591-1.816 3.329-1.14.64.585 2.153 1.247 3.24 1.417 2.051.32 4.36-.296 5.78-1.543.35-.307.759-.56.908-.56.665 0 1.731 2.085 1.72 3.364-.01 1.175-1.27 2.764-2.817 3.554-.95.484-3.456 1.19-4.55 1.282a9.706 9.706 0 0 1-1.776-.05zm35.79-8.825c-.435-.238-.8-.68-1.216-1.475-.506-.967-.58-1.26-.498-1.97.126-1.084.452-1.69 1.425-2.648 1.019-1.002 2.407-1.837 4.049-2.435 1.732-.63 4.14-.65 5.7-.047 2.13.823 3.862 2.723 3.862 4.234 0 1.015-.204 1.362-1.113 1.886-.877.505-2.068.753-4.337.902-1.645.108-2.662.382-4.553 1.225-1.456.65-2.535.756-3.318.328zM99.96 85.272c-.714-.204-1.013-.501-1.39-1.379-.392-.916-.437-2.63-.09-3.457.803-1.91 3.712-3.162 6.446-2.775 1.61.228 2.88.837 4.046 1.94 1.124 1.063 1.524 1.808 1.524 2.84 0 .607-.11.854-.587 1.332-.853.853-2.043 1.14-5.541 1.337-1.66.094-3.22.2-3.464.238a2.669 2.669 0 0 1-.944-.076zm27.144-21.543c-3.177-.824-5.236-3.454-5.236-6.689 0-5.163 5.378-8.44 10.004-6.096 1.193.604 2.528 1.987 3.102 3.212.424.903.478 1.231.478 2.884 0 1.643-.056 1.982-.464 2.842-1.407 2.966-4.834 4.638-7.884 3.847zm24.512-11.174c-.906-2.607-1.877-3.852-3.71-4.754-2.493-1.227-5.736-.708-7.505 1.2l-.417.45-.3-.69c-.387-.892-.521-2.932-.238-3.616.645-1.557 2.575-1.562 5.864-.013 2.22 1.045 2.063 1 4.563 1.326 2.237.293 2.936.577 3.437 1.399.698 1.144.357 3.38-.662 4.341-.659.622-.91.709-1.032.357z" transform="matrix(.09146 0 0 .09146 -7.562 -3.942)"/></g></svg>